<svg xmlns="http://www.w3.org/2000/svg" viewBox="0 0 64 64" fill="none" role="img" aria-label="Michael Owusu logo">
  <rect width="64" height="64" rx="14" fill="#0B1220"/>
  <path
    fill="#14B8A6"
    d="M11 47V17h7.1L25.8 36.4 33.5 17H40.6v30h-5.8V28.6L28.4 47h-5.2l-6.4-18.4V47H11Z"
  />
  <path
    fill="#14B8A6"
    fill-rule="evenodd"
    clip-rule="evenodd"
    d="M45.2 17.5c7.87 0 14.25 6.38 14.25 14.25S53.07 46 45.2 46s-14.25-6.38-14.25-14.25S37.33 17.5 45.2 17.5Zm0 5.4c-4.89 0-8.85 3.96-8.85 8.85s3.96 8.85 8.85 8.85 8.85-3.96 8.85-8.85-3.96-8.85-8.85-8.85Z"
  />
</svg>
